<svg width="67" height="44" viewBox="0 0 67 44" fill="none" xmlns="http://www.w3.org/2000/svg">
<path fill-rule="evenodd" clip-rule="evenodd" d="M33.2523 0C14.9215 0 0.0588596 14.8237 0.0572727 33.1094L0 44H66.3915V35.0045C66.4278 34.4012 66.4487 33.7734 66.4487 33.1146C66.4487 14.826 51.5861 0 33.2523 0Z" fill="#FFFFFE"/>
<path fill-rule="evenodd" clip-rule="evenodd" d="M62.857 26.817C62.857 26.392 62.4981 26.0405 62.0587 26.0405H54.7751L54.8123 26.0999C54.8267 26.1217 54.842 26.1397 54.8565 26.1655L54.8941 26.2273L54.9351 26.3015L54.9789 26.3663L55.0138 26.4327L55.0532 26.4975L55.0785 26.5528C55.0895 26.5748 55.1096 26.6006 55.1161 26.6294L55.1529 26.6998L55.1852 26.7608L55.2154 26.831C55.2333 26.8678 55.2477 26.9036 55.263 26.9412H55.2665V26.9514C55.2866 26.9879 55.3059 27.0325 55.3194 27.0724L55.3365 27.1059C55.35 27.1419 55.3614 27.1723 55.3727 27.2113L55.3872 27.2441C55.4029 27.2849 55.4182 27.3247 55.4287 27.3653L55.4466 27.4051C55.4558 27.4387 55.4667 27.4715 55.4755 27.5035L55.4938 27.5583C55.5035 27.5887 55.5131 27.6137 55.5188 27.6426L55.5419 27.7128C55.5454 27.7504 55.5564 27.7824 55.5647 27.816L55.576 27.8488C55.5839 27.8886 55.5953 27.9284 55.6018 27.969L55.6097 28.0026C55.6211 28.0464 55.6311 28.0934 55.6407 28.141L55.6442 28.155C55.6565 28.2025 55.6622 28.2479 55.6705 28.2947L55.674 28.3205C55.6814 28.3635 55.6923 28.4111 55.6958 28.4557L55.7002 28.4877C55.7076 28.5283 55.7115 28.5729 55.719 28.6166L55.722 28.6385C55.7343 28.7446 55.7452 28.8462 55.7518 28.9572V28.9712C55.7679 29.1354 55.7719 29.3001 55.7719 29.4727V34.0679H55.7422V33.9718H55.7719V35.2483C55.7614 35.4091 55.7487 35.563 55.7308 35.7208L55.7679 35.7169H55.8755L55.9105 35.7208L55.9415 35.7248H56.0385L56.0678 35.7318L56.0997 35.7357H56.1024L56.133 35.7388H56.1631L56.1924 35.7466L56.2235 35.7497L56.2567 35.7576L56.2838 35.7615H56.2877L56.314 35.7676L56.3467 35.7716L56.3769 35.7834L56.4114 35.7895L56.4372 35.7943L56.4678 35.8022L56.5273 35.8201L56.5588 35.8271L56.5854 35.8349L56.6134 35.845L56.6458 35.8537L56.6711 35.866L56.7017 35.8778L56.7306 35.8848L56.7586 35.8996H56.7612L56.7848 35.9075H56.7878L56.8136 35.9224L56.8407 35.9333L56.8713 35.9434L56.9011 35.9582L56.9238 35.97L56.9527 35.9831L56.9798 35.9949L57.0104 36.0129L57.0283 36.0286L57.0589 36.0387L57.086 36.0544L57.1105 36.0684L57.1332 36.0824L57.1607 36.102L57.1865 36.1191L57.2088 36.13L57.2355 36.1528L57.2626 36.1676L57.2845 36.1855L57.3103 36.1956L57.3334 36.2183L57.3562 36.2363L57.3833 36.2533L57.406 36.2699L57.4244 36.2878L57.4501 36.3093L57.4733 36.3276L57.4912 36.3504L57.5183 36.3683L57.5603 36.4081L57.5817 36.4299C58.0298 36.8697 58.3092 37.4774 58.3092 38.1462V38.311L58.3044 38.3329L58.3013 38.3578V38.3696L58.2939 38.4173V38.4501L58.2891 38.4522V38.4719L58.286 38.4938L58.2834 38.5156V38.5436L58.2707 38.5624V38.5742L58.2681 38.607V38.6109C58.2593 38.6328 58.2563 38.6625 58.248 38.6914V38.6944L58.241 38.7202V38.7281H58.237L58.2248 38.7797V38.7827C58.185 38.9296 58.1291 39.0678 58.0683 39.1989L58.0644 39.2037L58.053 39.2208V39.2256L58.0425 39.2435L58.0364 39.2514L58.0342 39.2623L58.0233 39.2811V39.2842C58.0088 39.3099 57.9957 39.3279 57.9852 39.3537L57.9804 39.3563V39.3598L57.9695 39.3795L57.966 39.3825L57.9468 39.4053V39.4149L57.9363 39.4302L57.9323 39.4372L57.9201 39.4512L57.9188 39.456V39.4599L57.9026 39.4818L57.8952 39.4918L57.8873 39.5036L57.8842 39.5097H62.0587C62.4981 39.5097 62.857 39.16 62.857 38.732V26.817Z" fill="#FACA22"/>
<path fill-rule="evenodd" clip-rule="evenodd" d="M31.9554 7.51778C43.37 7.51778 53.1931 14.3635 57.615 24.1907H62.857C58.7123 12.2018 47.3906 3.5918 34.0685 3.5918C17.2375 3.5918 3.5918 17.3325 3.5918 34.2775C3.5918 36.062 3.74463 37.8067 4.03123 39.5099C3.88216 38.3204 3.79591 37.1072 3.79591 35.8727C3.79591 20.2154 16.4052 7.51778 31.9554 7.51778Z" fill="#FACA22"/>
<path fill-rule="evenodd" clip-rule="evenodd" d="M58.2913 34.1601L58.4102 34.902C58.2804 34.9299 58.1763 34.9833 58.1086 35.0764C58.0412 35.166 58.0036 35.2784 58.0036 35.4248C58.0036 35.6132 58.0679 35.7649 58.1816 35.8725C58.3005 35.9839 58.4941 36.0399 58.7661 36.0399C59.0764 36.0399 59.2928 35.9839 59.4205 35.8663C59.542 35.754 59.6072 35.5984 59.6072 35.4156C59.6072 35.2701 59.5691 35.1516 59.4966 35.0624C59.4244 34.964 59.2968 34.902 59.1188 34.8648L59.2338 34.1221C59.5355 34.2012 59.7728 34.3538 59.925 34.5697C60.0819 34.7857 60.1632 35.0764 60.1632 35.4436C60.1632 35.8615 60.0439 36.1955 59.8065 36.4447C59.5691 36.6943 59.2369 36.8159 58.8185 36.8159C58.3936 36.8159 58.0587 36.6943 57.8248 36.4447C57.5879 36.1916 57.469 35.8585 57.469 35.434C57.469 35.0856 57.5372 34.8084 57.6749 34.6016C57.8052 34.3992 58.0124 34.2497 58.2913 34.1601Z" fill="#02274E"/>
<path fill-rule="evenodd" clip-rule="evenodd" d="M58.7805 34.122C58.5549 34.122 58.3346 34.0617 58.123 33.9507C57.911 33.8383 57.7501 33.6796 57.6338 33.4737C57.5236 33.2643 57.469 33.033 57.469 32.7795C57.469 32.3843 57.5949 32.0625 57.8467 31.8107C58.1011 31.5629 58.4246 31.4282 58.8102 31.4282C59.1988 31.4282 59.5228 31.5629 59.7763 31.8147C60.0365 32.0682 60.1632 32.3895 60.1632 32.7703C60.1632 33.016 60.1116 33.242 60.0002 33.4571C59.8957 33.6713 59.7366 33.8383 59.5355 33.9507C59.3265 34.0617 59.0764 34.122 58.7805 34.122ZM58.8185 33.4143C59.0729 33.4143 59.2666 33.3539 59.4034 33.2293C59.5385 33.11 59.6072 32.9544 59.6072 32.7795C59.6072 32.5994 59.5385 32.4446 59.4034 32.3248C59.2666 32.1994 59.0729 32.1434 58.8124 32.1434C58.5593 32.1434 58.3647 32.1994 58.2288 32.3248C58.0928 32.4446 58.0242 32.5994 58.0242 32.7795C58.0242 32.9544 58.0928 33.11 58.2288 33.2293C58.3647 33.3539 58.5593 33.4143 58.8185 33.4143Z" fill="#02274E"/>
<path fill-rule="evenodd" clip-rule="evenodd" d="M57.5302 31.4283V30.8329H57.8887C57.6089 30.62 57.469 30.3659 57.469 30.073C57.469 29.9167 57.5035 29.7792 57.5722 29.6675C57.6426 29.549 57.747 29.458 57.8887 29.3808C57.747 29.2768 57.6426 29.1601 57.5722 29.0347C57.5035 28.911 57.469 28.7771 57.469 28.6361C57.469 28.46 57.5079 28.3037 57.5857 28.1827C57.6644 28.0581 57.7811 27.9653 57.9341 27.9C58.0474 27.8606 58.2275 27.8364 58.4788 27.8364H60.1632V28.4833H58.6572C58.398 28.4833 58.2275 28.5073 58.1497 28.5519C58.0539 28.613 58.0028 28.7014 58.0028 28.8259C58.0028 28.9187 58.0369 29.0037 58.0928 29.0794C58.1497 29.1643 58.2423 29.221 58.3542 29.2562C58.4705 29.2922 58.6528 29.3087 58.8963 29.3087H60.1632V29.9527H58.7197C58.4622 29.9527 58.2992 29.9639 58.224 29.9888C58.1497 30.0129 58.0928 30.049 58.0592 30.0928C58.0251 30.1427 58.0028 30.2062 58.0028 30.2896C58.0028 30.39 58.0321 30.4835 58.0915 30.5591C58.1453 30.6406 58.2332 30.6965 58.3403 30.7284C58.4495 30.7678 58.6279 30.7848 58.8828 30.7848H60.1632V31.4283H57.5302Z" fill="#02274E"/>
<path fill-rule="evenodd" clip-rule="evenodd" d="M31.4285 22.4493C31.4285 23.4435 30.6242 24.2446 29.6321 24.2446C28.6394 24.2446 27.8367 23.4435 27.8367 22.4493C27.8367 21.454 28.6394 20.6528 29.6321 20.6528C30.6242 20.6528 31.4285 21.454 31.4285 22.4493Z" fill="#02274E"/>
<path fill-rule="evenodd" clip-rule="evenodd" d="M17.0612 39.5098V21.5508H20.3397V26.7199C21.4261 25.6622 22.5459 24.8114 23.8969 24.8114C25.8957 24.8114 26.9387 25.8439 26.9387 28.5247V39.5098H23.6649V28.8966C23.6649 27.9428 23.3528 27.3068 22.469 27.3068C21.794 27.3068 21.0413 27.9681 20.3397 28.6033V39.5098H17.0612Z" fill="#02274E"/>
<path fill-rule="evenodd" clip-rule="evenodd" d="M27.8367 39.5097H31.4285V25.1426H27.8367V39.5097Z" fill="#02274E"/>
<path fill-rule="evenodd" clip-rule="evenodd" d="M33.2244 39.5097V25.3999H36.3968V27.0081C37.5926 25.9742 38.709 25.1426 40.0638 25.1426C42.0625 25.1426 43.1021 26.1517 43.1021 28.7722V39.5097H39.8295V29.1357C39.8295 28.2033 39.5156 27.5817 38.6305 27.5817C37.9597 27.5817 37.2044 28.2282 36.5023 28.849V39.5097H33.2244Z" fill="#02274E"/>
<path fill-rule="evenodd" clip-rule="evenodd" d="M47.3941 33.0922V34.9256C47.3941 36.3023 48.2567 36.913 49.3885 36.913C50.8154 36.913 51.3811 36.0456 51.3811 34.9755H54.7752C54.6169 37.8301 52.8115 39.5097 49.3885 39.5097C46.1556 39.5097 44 37.6251 44 34.5943V30.0605C44 27.0258 46.1556 25.1426 49.3885 25.1426C52.5365 25.1426 54.7752 27.0258 54.7752 29.8572V33.0922H47.3941ZM51.3811 30.4894V29.7285C51.3811 28.5055 50.7625 27.7425 49.3885 27.7425C48.0118 27.7425 47.3941 28.5055 47.3941 29.7285V30.4894H51.3811Z" fill="#02274E"/>
<path fill-rule="evenodd" clip-rule="evenodd" d="M9.37117 28.9922C9.37117 28.274 9.97878 27.7425 10.7767 27.7425C11.8277 27.7425 12.7124 28.3525 13.179 29.6266L16.052 28.6091C15.1947 26.5193 13.3979 25.1426 10.8056 25.1426C8.34803 25.1426 6.05948 26.3907 6.05948 29.0158C6.05948 33.6771 12.8475 33.0428 12.8475 35.6894C12.8475 36.4561 12.2129 36.913 11.1673 36.913C10.4256 36.913 9.80147 36.6721 9.42795 36.2445L7.27549 33.5127L5.3877 35.782C7.15099 38.9851 9.06686 39.5097 11.1673 39.5097C14.0627 39.5097 16.1632 38.057 16.1632 35.3077C16.1632 31.177 9.37117 31.1315 9.37117 28.9922Z" fill="#02274E"/>
<path fill-rule="evenodd" clip-rule="evenodd" d="M57.4689 38.165C57.4689 37.7912 57.3194 37.4572 57.0746 37.2137C56.8289 36.9715 56.4941 36.8159 56.1234 36.8159V36.819H56.1203V36.8159C55.75 36.8159 55.413 36.9715 55.1695 37.2137C54.926 37.4572 54.7751 37.7912 54.7751 38.165C54.7751 38.534 54.926 38.8732 55.1734 39.1115C55.4165 39.3593 55.75 39.5097 56.1234 39.5097C56.4941 39.5097 56.8289 39.3593 57.0746 39.1115C57.3194 38.8732 57.4689 38.534 57.4689 38.165Z" fill="#02274E"/>
</svg>
